<svg width="25" height="25" viewBox="0 0 25 25" fill="none" xmlns="http://www.w3.org/2000/svg">
<circle cx="12.5" cy="12.5" r="12.5" fill="transparent"/>
<path fill-rule="evenodd" clip-rule="evenodd" d="M17.6367 7.94231C17.2521 7.5578 16.6287 7.5578 16.2442 7.94231L7.498 16.6885C7.1135 17.073 7.11349 17.6965 7.498 18.081C7.88251 18.4655 8.50592 18.4655 8.89043 18.081L17.6367 9.33473C18.0212 8.95022 18.0212 8.32681 17.6367 7.94231Z" fill="#000"/>
<path fill-rule="evenodd" clip-rule="evenodd" d="M7.49802 7.94246C7.11351 8.32697 7.11351 8.95038 7.49801 9.33488L16.2442 18.0811C16.6288 18.4656 17.2522 18.4656 17.6367 18.0811C18.0212 17.6966 18.0212 17.0732 17.6367 16.6887L8.89044 7.94246C8.50593 7.55795 7.88252 7.55795 7.49802 7.94246Z" fill="#000"/>
</svg>
